<?xml version="1.0" standalone="no"?>
<!DOCTYPE svg PUBLIC "-//W3C//DTD SVG 20010904//EN"
 "http://www.w3.org/TR/2001/REC-SVG-20010904/DTD/svg10.dtd">
<svg version="1.0" xmlns="http://www.w3.org/2000/svg"
 width="512.000000pt" height="512.000000pt" viewBox="0 0 512.000000 512.000000"
 preserveAspectRatio="xMidYMid meet">

<g transform="translate(0.000000,512.000000) scale(0.100000,-0.100000)"
fill="#000000" stroke="none">
<path d="M638 3906 c-36 -27 -38 -60 -38 -562 l0 -494 -109 0 c-159 0 -151 16
-151 -306 l0 -254 -55 0 c-65 0 -99 -14 -114 -47 -7 -15 -11 -115 -11 -284 l0
-261 29 -29 c29 -28 32 -29 135 -29 l106 0 0 -195 c0 -263 -17 -245 238 -245
166 0 192 2 211 17 21 18 35 66 96 346 l17 77 1568 0 1568 0 17 -77 c61 -280
75 -328 96 -345 19 -16 45 -18 211 -18 255 0 238 -18 238 245 l0 195 106 0
c103 0 106 1 135 29 l29 29 0 267 0 267 -29 29 c-26 26 -36 29 -90 29 l-61 0
0 254 c0 322 8 306 -151 306 l-109 0 0 494 c0 502 -2 535 -38 562 -25 20
-3819 20 -3844 0z m3722 -596 l0 -450 -140 0 -140 0 0 260 c0 246 -1 261 -20
280 -11 11 -30 22 -42 25 -13 3 -254 4 -535 3 l-512 -3 -23 -23 c-23 -22 -23
-27 -26 -282 l-3 -260 -359 0 -359 0 -3 260 c-3 255 -3 260 -26 282 l-23 23
-535 0 -536 0 -19 -24 c-18 -21 -19 -42 -19 -282 l0 -259 -140 0 -140 0 0 450
0 450 1800 0 1800 0 0 -450z m-2322 -247 l2 -203 -420 0 -420 0 0 205 0 205
418 -2 417 -3 3 -202z m1882 2 l0 -205 -420 0 -420 0 0 198 c0 109 3 202 7
205 3 4 192 7 420 7 l413 0 0 -205z m700 -575 l0 -200 -2060 0 -2060 0 0 200
0 200 2060 0 2060 0 0 -200z m180 -525 l0 -165 -2240 0 -2240 0 0 165 0 165
2240 0 2240 0 0 -165z m-3973 -339 c-3 -7 -18 -70 -33 -140 l-28 -126 -88 0
-88 0 0 140 0 140 121 0 c99 0 120 -3 116 -14z m3703 -126 l0 -140 -88 0 -88
0 -28 126 c-15 70 -30 133 -33 140 -4 11 17 14 116 14 l121 0 0 -140z"/>
</g>
</svg>
