<?xml version="1.0" standalone="no"?>
<!DOCTYPE svg PUBLIC "-//W3C//DTD SVG 20010904//EN"
 "http://www.w3.org/TR/2001/REC-SVG-20010904/DTD/svg10.dtd">
<svg version="1.0" xmlns="http://www.w3.org/2000/svg"
 width="512.000000pt" height="512.000000pt" viewBox="0 0 512.000000 512.000000"
 preserveAspectRatio="xMidYMid meet">

<g transform="translate(0.000000,512.000000) scale(0.100000,-0.100000)"
fill="#000000" stroke="none">
<path d="M754 4784 c-17 -8 -119 -103 -226 -212 -164 -164 -198 -203 -203
-234 -13 -71 43 -138 117 -138 43 0 65 15 166 114 l82 81 0 -1646 c0 -1484 2
-1651 16 -1700 51 -171 173 -293 343 -343 49 -14 223 -16 1700 -16 l1646 0
-81 -82 c-99 -101 -114 -123 -114 -166 0 -91 90 -149 168 -108 32 18 405 392
421 423 15 30 14 69 -3 101 -18 32 -392 405 -423 421 -46 24 -116 4 -147 -41
-9 -12 -16 -42 -16 -67 0 -42 4 -48 95 -140 52 -54 95 -100 95 -104 0 -4 -737
-6 -1637 -5 l-1638 3 -47 23 c-53 26 -102 77 -127 131 -15 33 -16 187 -19
1674 -1 900 1 1637 5 1637 4 0 50 -43 104 -95 86 -85 100 -95 133 -95 95 0
154 88 112 168 -22 41 -397 410 -429 422 -38 13 -56 12 -93 -6z"/>
<path d="M1428 4784 c-78 -42 -75 -161 5 -207 17 -9 346 -13 1493 -17 l1471
-5 49 -30 c30 -19 60 -49 79 -79 l30 -49 5 -1471 c4 -1147 8 -1476 17 -1493
34 -59 103 -79 163 -48 64 33 60 -69 60 1524 0 1020 -3 1466 -11 1503 -39 185
-192 338 -377 377 -37 8 -482 11 -1505 11 -1265 -1 -1456 -3 -1479 -16z"/>
<path d="M3675 3961 c-143 -38 -237 -151 -239 -286 -1 -57 2 -67 28 -94 72
-75 186 -35 203 72 8 50 34 77 73 77 64 0 88 -65 54 -146 -37 -91 -157 -265
-287 -417 -90 -105 -97 -159 -27 -222 21 -19 36 -20 261 -20 l239 0 31 31 c42
43 49 97 17 144 -29 43 -71 59 -157 59 -61 1 -63 2 -50 20 124 175 196 309
219 409 32 139 -38 287 -166 347 -57 27 -150 39 -199 26z"/>
<path d="M1699 3505 c-61 -33 -59 -7 -59 -868 l0 -784 23 -34 c32 -48 89 -67
139 -46 76 32 72 -3 78 692 6 690 1 652 75 713 87 71 197 68 281 -10 75 -69
74 -59 74 -731 0 -532 2 -592 17 -617 22 -38 56 -55 106 -54 33 1 47 8 74 38
l33 36 0 592 c0 326 4 610 9 631 36 153 224 215 346 114 77 -63 75 -38 75
-710 0 -659 -1 -648 62 -687 42 -25 74 -25 115 0 65 39 63 17 63 674 0 399 -4
612 -11 648 -29 135 -121 253 -246 315 -66 32 -86 37 -165 41 -65 3 -107 0
-154 -13 -63 -17 -165 -74 -193 -108 -12 -15 -17 -14 -52 16 -126 109 -290
140 -446 86 -68 -23 -73 -23 -73 -3 0 9 -15 31 -34 50 -27 27 -42 34 -72 34
-22 -1 -51 -7 -65 -15z"/>
</g>
</svg>
