<?xml version="1.0" standalone="no"?>
<!DOCTYPE svg PUBLIC "-//W3C//DTD SVG 20010904//EN"
 "http://www.w3.org/TR/2001/REC-SVG-20010904/DTD/svg10.dtd">
<svg version="1.0" xmlns="http://www.w3.org/2000/svg"
 width="512.000000pt" height="512.000000pt" viewBox="0 0 512.000000 512.000000"
 preserveAspectRatio="xMidYMid meet">

<g transform="translate(0.000000,512.000000) scale(0.100000,-0.100000)"
fill="#000000" stroke="none">
<path d="M2882 4865 c-58 -18 -108 -58 -135 -108 l-22 -42 -3 -976 -2 -977
-98 -36 c-54 -20 -103 -36 -108 -36 -5 1 -21 19 -37 41 -39 56 -133 114 -217
133 -102 23 -1076 24 -1165 1 -110 -29 -202 -100 -249 -192 l-17 -33 -117 0
c-187 0 -305 -45 -388 -146 -67 -81 -77 -126 -82 -336 l-4 -187 26 -26 c23
-23 32 -25 120 -25 l95 0 3 -372 3 -373 28 -80 c16 -44 40 -100 54 -125 35
-59 127 -149 186 -180 l47 -25 0 -238 0 -238 25 -25 c26 -26 26 -26 183 -22
155 3 159 4 224 36 77 38 125 88 169 178 32 64 69 191 69 237 l0 27 1088 0
1087 0 12 -75 c16 -97 65 -215 118 -279 28 -35 62 -62 109 -86 l69 -35 158 -3
c158 -4 158 -4 184 22 l25 25 0 238 0 238 54 28 c61 32 139 109 178 177 15 25
39 81 55 125 l28 80 3 533 3 532 95 0 c88 0 97 2 120 25 l26 26 -4 187 c-5
210 -13 244 -76 326 -44 59 -115 109 -185 133 -47 16 -115 18 -699 21 l-648 3
-142 -52 c-79 -28 -167 -59 -195 -70 l-53 -18 0 925 0 925 25 24 24 25 471 0
471 0 24 -25 c23 -22 25 -31 25 -122 l0 -98 -59 -17 c-76 -23 -136 -69 -187
-144 -55 -82 -74 -162 -74 -309 0 -110 1 -117 25 -140 l24 -25 351 0 351 0 24
25 c24 23 25 30 25 141 0 183 -31 277 -124 369 -48 48 -137 95 -181 95 -12 0
-15 19 -15 98 0 156 -35 238 -123 285 -42 22 -45 22 -537 24 -393 2 -504 -1
-538 -12z m1203 -556 c90 -25 155 -133 155 -256 l0 -53 -240 0 -240 0 0 53 c0
119 58 220 143 251 51 18 128 20 182 5z m476 -1525 c67 -20 132 -81 148 -139
6 -22 11 -86 11 -142 l0 -103 -727 0 -728 0 -439 -160 -438 -160 -234 0 -234
0 0 200 0 200 248 0 247 0 435 159 435 159 611 1 c534 1 617 -1 665 -15z
m-2751 -96 c-33 -56 -50 -145 -50 -260 l0 -108 -401 0 -401 0 4 123 c4 141 22
189 83 227 74 46 102 49 452 49 l332 1 -19 -32z m428 17 c28 -9 64 -27 79 -40
l28 -24 -185 -1 -184 0 21 21 c25 25 115 58 159 59 17 0 54 -7 82 -15z m-1438
-425 l0 -200 -200 0 -200 0 0 103 c0 126 11 169 58 219 52 56 121 77 245 78
l97 0 0 -200z m3678 -562 c-4 -582 -3 -572 -74 -679 -41 -63 -99 -109 -169
-135 -48 -18 -107 -19 -1680 -19 l-1630 0 -59 24 c-70 28 -134 88 -170 160
-50 98 -56 148 -56 514 l0 337 80 0 80 0 0 -133 c0 -165 14 -218 70 -275 70
-70 86 -72 490 -72 404 0 420 2 490 72 56 57 70 110 70 275 l0 133 248 0 247
0 435 159 435 159 598 1 598 1 -3 -522z m-2718 191 c0 -246 -4 -281 -34 -301
-14 -10 -718 -10 -732 0 -30 20 -34 55 -34 301 l0 251 400 0 400 0 0 -251z
m-450 -1207 c0 -68 -59 -209 -107 -254 -40 -38 -74 -48 -164 -48 l-79 0 0 160
0 160 175 0 c161 0 175 -1 175 -18z m2850 -142 l0 -160 -79 0 c-90 0 -124 10
-164 48 -47 45 -107 183 -107 249 l0 23 175 0 175 0 0 -160z"/>
<path d="M3600 3520 l0 -160 80 0 80 0 0 160 0 160 -80 0 -80 0 0 -160z"/>
<path d="M3920 3520 l0 -160 80 0 80 0 0 160 0 160 -80 0 -80 0 0 -160z"/>
<path d="M4240 3520 l0 -160 80 0 80 0 0 160 0 160 -80 0 -80 0 0 -160z"/>
</g>
</svg>
