<?xml version="1.0" standalone="no"?>
<!DOCTYPE svg PUBLIC "-//W3C//DTD SVG 20010904//EN"
 "http://www.w3.org/TR/2001/REC-SVG-20010904/DTD/svg10.dtd">
<svg version="1.0" xmlns="http://www.w3.org/2000/svg"
 width="670.000000pt" height="373.000000pt" viewBox="0 0 670.000000 373.000000"
 preserveAspectRatio="xMidYMid meet">

<g transform="translate(0.000000,373.000000) scale(0.100000,-0.100000)"
fill="#000000" stroke="none">
<path d="M3145 3707 c-359 -58 -687 -304 -862 -647 -176 -343 -175 -736 3
-1084 25 -49 54 -101 64 -115 24 -35 94 -143 100 -156 3 -6 27 -44 54 -85 146
-222 216 -335 216 -347 0 -14 -24 -23 -62 -23 -35 0 -205 -41 -333 -81 -281
-87 -451 -188 -545 -325 -32 -45 -70 -149 -70 -189 0 -39 38 -145 68 -190 67
-99 226 -209 392 -270 110 -41 188 -67 225 -74 22 -5 76 -18 120 -29 383 -98
1045 -111 1514 -31 64 10 143 27 176 35 33 9 76 19 96 23 46 10 133 39 187 62
23 11 47 19 53 19 11 0 137 61 189 91 68 41 161 122 187 164 30 48 55 109 65
159 10 47 9 61 -12 126 -23 70 -77 152 -135 203 -89 79 -283 174 -470 230 -86
26 -286 73 -347 82 -21 3 -38 11 -38 16 0 16 33 69 42 69 4 0 8 5 8 11 0 6 28
54 63 107 35 54 80 124 101 157 20 33 60 94 87 135 27 41 52 82 56 90 3 8 16
29 28 45 27 36 105 192 105 208 0 6 11 41 24 77 75 203 72 484 -7 720 -30 93
-105 249 -133 281 -8 8 -14 19 -14 23 0 12 -115 149 -164 196 -170 162 -412
284 -634 319 -85 13 -311 12 -397 -2z m385 -212 c93 -16 187 -48 265 -91 28
-15 59 -32 70 -38 82 -45 208 -165 284 -271 196 -273 240 -615 119 -925 -32
-85 -53 -123 -153 -281 -38 -61 -75 -118 -80 -127 -6 -9 -23 -37 -39 -62 -16
-25 -52 -81 -80 -125 -28 -45 -57 -90 -64 -100 -28 -44 -52 -81 -62 -95 -6 -8
-26 -40 -45 -70 -74 -119 -118 -188 -165 -260 -28 -41 -60 -92 -72 -114 -27
-45 -31 -52 -83 -131 -22 -33 -44 -69 -50 -80 -15 -28 -35 -25 -54 7 -9 15
-47 77 -86 138 -38 61 -75 119 -81 130 -6 11 -18 28 -26 37 -9 10 -23 32 -32
48 -9 17 -25 44 -36 60 -11 17 -27 44 -36 60 -9 17 -24 39 -34 50 -9 11 -29
42 -45 70 -16 27 -33 54 -37 60 -5 5 -18 24 -28 40 -11 17 -25 39 -32 50 -74
113 -138 216 -138 220 0 3 -19 33 -43 68 -24 34 -46 69 -50 77 -4 8 -29 49
-57 90 -178 268 -232 519 -172 797 22 100 28 119 80 233 61 134 172 265 307
365 104 78 271 151 389 171 100 16 266 16 366 -1z m-659 -2447 c10 -13 18 -26
19 -30 0 -4 20 -37 45 -74 25 -36 45 -67 45 -70 0 -2 30 -50 66 -107 37 -56
96 -148 133 -205 90 -141 99 -152 138 -169 31 -12 38 -12 71 4 38 18 48 32
222 304 36 56 75 117 88 136 12 19 22 36 22 38 0 2 20 33 45 69 25 37 45 70
45 74 1 4 9 17 19 29 l18 21 134 -23 c155 -27 299 -61 348 -81 18 -8 40 -14
49 -14 8 0 38 -11 66 -24 28 -14 74 -35 102 -49 91 -42 182 -116 210 -169 70
-133 -157 -294 -561 -397 -251 -63 -509 -91 -851 -91 -342 0 -582 27 -854 95
-328 82 -560 224 -560 342 0 34 36 93 81 130 58 49 84 64 232 133 99 46 368
113 600 149 5 0 17 -9 28 -21z"/>
<path d="M3230 3049 c-140 -27 -293 -149 -363 -290 -36 -74 -66 -183 -67 -243
0 -49 30 -156 66 -234 61 -134 215 -257 359 -288 180 -39 358 8 491 129 69 63
116 135 147 228 36 108 41 170 23 258 -23 109 -79 214 -156 292 -129 131 -311
185 -500 148z m207 -213 c143 -38 243 -169 243 -317 0 -215 -225 -380 -426
-312 -229 76 -309 350 -153 526 89 102 206 138 336 103z"/>
</g>
</svg>
